<svg width="29" height="35" viewBox="0 0 29 35" fill="none" xmlns="http://www.w3.org/2000/svg">
<path d="M28.5001 14.2487V33.9207H22.9135V29.5775C21.0089 32.5155 17.3268 34.1762 12.248 34.1762C4.88368 34.1762 0.312744 30.2162 0.312744 24.5957C0.312744 19.3583 3.61397 15.1429 13.2637 15.1429H22.5325V13.9932C22.5325 9.01137 19.6122 6.20109 13.8986 6.20109C10.0895 6.20109 6.15338 7.60623 3.61397 9.65007L1.20153 5.17917C4.50276 2.49663 9.32763 0.963745 14.5334 0.963745C23.5483 1.09149 28.5001 5.43465 28.5001 14.2487ZM22.6595 23.957V19.3583H13.6446C7.80399 19.3583 6.15338 21.6576 6.15338 24.3402C6.15338 27.5337 8.81975 29.5775 13.2637 29.5775C17.7077 29.7053 21.2628 27.7892 22.6595 23.957Z" fill="#FF6060"/>
</svg>
