<svg width="28" height="34" viewBox="0 0 28 34" fill="none" xmlns="http://www.w3.org/2000/svg">
<path d="M0.395752 29.4717L2.80819 24.873C5.60153 26.7891 9.91852 28.1943 14.1085 28.1943C19.5683 28.1943 21.7268 26.5337 21.7268 23.7234C21.7268 16.4422 1.28454 22.7015 1.28454 9.7997C1.28454 3.92366 6.49033 0.0914612 14.7434 0.0914612C18.9334 0.0914612 23.7583 1.24112 26.5516 3.02948L24.0122 7.62812C21.0919 5.71202 17.9177 5.07332 14.7434 5.07332C9.66458 5.07332 7.12518 6.98942 7.12518 9.54422C7.12518 17.2086 27.5674 10.9494 27.5674 23.5956C27.5674 29.4717 22.2346 33.1761 13.6007 33.1761C8.39488 33.3039 3.06213 31.6433 0.395752 29.4717Z" fill="#FF6060"/>
</svg>
